#!OML:ASF H:\LiuWeirdWalks\Patient Classification 1\Patient 1\Session 1\male.ASF
:FULLY-SPECIFIED
:DEGREES
680
root 2.37596 18.0171 35.6037 0.669182 -3.54871 -5.9657
lowerback 5.5786 0.726115 6.60746
upperback -0.305145 1.48766 2.38239
thorax -3.34801 0.642473 -1.36061
lowerneck -21.4888 1.43639 4.17834
upperneck 15.4897 1.03371 -1.78437
head 8.37199 0.550275 -1.14523
rclavicle -1.35795e-014 6.36111e-015
rhumerus -32.4689 -15.1732 -80.5754
rradius 25.9482
rwrist -1.1354
rhand -16.5612 -1.08529
rfingers 7.12502
rthumb 9.65871 -30.8438
lclavicle -1.35795e-014 6.36111e-015
lhumerus -21.7978 -5.48123 82.9293
lradius 39.143
lwrist 13.4817
lhand -17.0257 -1.17164
lfingers 7.12502
lthumb 9.21057 28.6072
rfemur -24.6195 -3.99952 26.6184
rtibia 29.6962
rfoot -5.89792 -22.6289
rtoes -7.80643
lfemur -9.27901 2.95888 -13.9384
ltibia 31.0641
lfoot -10.721 17.7992
ltoes -8.94193
681
root 2.35877 18.027 35.7015 0.937873 -3.31124 -5.90683
lowerback 5.38637 0.4814 6.13924
upperback -0.474504 1.13137 2.58103
thorax -3.45339 0.47036 -0.864309
lowerneck -21.0996 1.65542 4.45784
upperneck 15.4501 1.31363 -2.02199
head 8.30495 0.675238 -1.23476
rclavicle -1.09332e-015 1.47101e-014
rhumerus -32.1991 -14.1044 -80.9202
rradius 26.0426
rwrist -1.16875
rhand -16.7681 -1.15441
rfingers 7.12502
rthumb 9.45908 -30.9221
lclavicle -1.09332e-015 1.47101e-014
lhumerus -21.8861 -4.70117 82.7634
lradius 38.7454
lwrist 13.3849
lhand -17.1528 -1.07166
lfingers 7.12502
lthumb 9.08791 28.7126
rfemur -24.8771 -3.56869 26.4223
rtibia 28.1913
rfoot -5.04462 -22.7024
rtoes -7.90473
lfemur -9.108 2.9027 -13.9687
ltibia 30.7412
lfoot -10.7218 17.7436
ltoes -9.17972
682
root 2.34105 18.0346 35.7996 1.188 -3.04637 -5.82201
lowerback 5.20309 0.241247 5.68455
upperback -0.627017 0.782121 2.75975
thorax -3.53697 0.303307 -0.396876
lowerneck -20.7715 1.8468 4.70363
upperneck 15.4274 1.55933 -2.2317
head 8.25376 0.785367 -1.31423
rclavicle -1.20513e-015 2.70347e-014
rhumerus -31.927 -13.0792 -81.2556
rradius 26.1542
rwrist -1.28886
rhand -16.9933 -1.21532
rfingers 7.12502
rthumb 9.24185 -30.9928
lclavicle -1.20513e-015 2.70347e-014
lhumerus -21.9657 -4.02385 82.6153
lradius 38.3596
lwrist 13.3363
lhand -17.2764 -1.01686
lfingers 7.12502
lthumb 8.96865 28.7725
rfemur -25.1016 -3.19902 26.1845
rtibia 26.8305
rfoot -4.26968 -22.7954
rtoes -7.94823
lfemur -8.9398 2.84402 -14.0223
ltibia 30.4526
lfoot -10.7486 17.6775
ltoes -9.39139
683
root 2.32251 18.0398 35.8983 1.40924 -2.75092 -5.72672
lowerback 5.01554 0.0385845 5.32352
upperback -0.743547 0.485638 2.89151
thorax -3.56989 0.162508 -0.0347934
lowerneck -20.5541 1.96906 4.87108
upperneck 15.4382 1.71612 -2.37271
head 8.22902 0.856007 -1.36939
rclavicle 6.39838e-015 -2.38542e-014
rhumerus -31.6559 -12.213 -81.5582
rradius 26.2997
rwrist -1.48885
rhand -17.2175 -1.28901
rfingers 7.12502
rthumb 9.02546 -31.0759
lclavicle 6.39838e-015 -2.38542e-014
lhumerus -21.9856 -3.54539 82.502
lradius 37.9899
lwrist 13.3011
lhand -17.3408 -0.978003
lfingers 7.12502
lthumb 8.90651 28.814
rfemur -25.2809 -2.9088 25.9325
rtibia 25.6239
rfoot -3.62064 -22.8867
rtoes -8.02845
lfemur -8.76411 2.7644 -14.0805
ltibia 30.2046
lfoot -10.8193 17.6108
ltoes -9.56513
684
root 2.30319 18.0426 35.9977 1.61561 -2.42982 -5.62627
lowerback 4.80087 -0.113059 5.08229
upperback -0.821281 0.259195 2.96724
thorax -3.53928 0.0554446 0.196108
lowerneck -20.4679 2.00524 4.93257
upperneck 15.4767 1.76251 -2.42355
head 8.23017 0.877106 -1.39096
rclavicle -4.24902e-015 2.5842e-014
rhumerus -31.3862 -11.5512 -81.8179
rradius 26.4928
rwrist -1.75873
rhand -17.4543 -1.34855
rfingers 7.12502
rthumb 8.79693 -31.1452
lclavicle -4.24902e-015 2.5842e-014
lhumerus -21.914 -3.29118 82.4321
lradius 37.607
lwrist 13.2488
lhand -17.3492 -0.948932
lfingers 7.12502
lthumb 8.89843 28.8434
rfemur -25.4292 -2.68253 25.6754
rtibia 24.5763
rfoot -3.13145 -22.9596
rtoes -8.15462
lfemur -8.59531 2.67627 -14.1373
ltibia 29.9985
lfoot -10.9365 17.5369
ltoes -9.68302
685
root 2.28305 18.0427 36.0979 1.79336 -2.09082 -5.52487
lowerback 4.5603 -0.207252 4.96083
upperback -0.854872 0.111159 2.99398
thorax -3.44334 -0.014011 0.302232
lowerneck -20.4868 1.95803 4.88505
upperneck 15.5284 1.70618 -2.39618
head 8.24797 0.85076 -1.38145
rclavicle -1.11816e-014 5.96354e-015
rhumerus -31.1169 -11.1009 -82.0128
rradius 26.729
rwrist -2.05809
rhand -17.6671 -1.40913
rfingers 7.12502
rthumb 8.59165 -31.2143
lclavicle -1.11816e-014 5.96354e-015
lhumerus -21.7498 -3.24546 82.4225
lradius 37.2109
lwrist 13.1461
lhand -17.2873 -0.903847
lfingers 7.12502
lthumb 8.95815 28.886
rfemur -25.5285 -2.5169 25.4251
rtibia 23.6905
rfoot -2.80465 -23.0054
rtoes -8.3054
lfemur -8.41437 2.57454 -14.1885
ltibia 29.831
lfoot -11.0895 17.4671
ltoes -9.76458
686
root 2.26266 18.0397 36.1989 1.91854 -1.75685 -5.41596
lowerback 4.32712 -0.281622 4.87365
upperback -0.855974 -0.0096488 3.00728
thorax -3.3164 -0.0700309 0.372266
lowerneck -20.5249 1.88702 4.80592
upperneck 15.5579 1.62412 -2.36191
head 8.26023 0.810774 -1.36769
rclavicle -4.62174e-015 6.36111e-015
rhumerus -30.855 -10.7091 -82.1723
rradius 26.9945
rwrist -2.36972
rhand -17.8577 -1.48846
rfingers 7.12502
rthumb 8.40764 -31.3011
lclavicle -4.62174e-015 6.36111e-015
lhumerus -21.5629 -3.25585 82.4442
lradius 36.8053
lwrist 12.9815
lhand -17.1717 -0.87342
lfingers 7.12502
lthumb 9.06964 28.9116
rfemur -25.5511 -2.38093 25.1709
rtibia 22.9676
rfoot -2.65397 -23.022
rtoes -8.51619
lfemur -8.18545 2.46071 -14.2431
ltibia 29.6981
lfoot -11.2615 17.4141
ltoes -9.83872
